<svg version="1.1" xmlns="http://www.w3.org/2000/svg" viewBox="0 0 618 356.5" width="618" height="356.5">
  <!-- svg-source:excalidraw -->
  
  <defs>
    <style>
      @font-face {
        font-family: "Yasuragi";
        src: url("https://draw.moyu.io/yasuragi.woff2");
      }
      @font-face {
        font-family: "YXCZ";
        src: url("https://draw.moyu.io/yxcz.woff2");
      }
      @font-face {
        font-family: "Segoe UI Emoji";
        src: url("https://draw.moyu.io/seguiemj.woff2");
      }
    </style>
  </defs>
  <rect x="0" y="0" width="618" height="356.5" fill="#ffffff"></rect><g transform="translate(10 21.5) rotate(0 42.5 12.5)"><text x="0" y="19" font-family="Yasuragi, YXCZ, Segoe UI Emoji" font-size="20px" fill="#000000" text-anchor="start" style="white-space: pre;" direction="ltr">协作开发2</text></g><g transform="translate(117 88) rotate(0 59.5 30.5)"><path d="M0 0 C28.087352742999794 0, 56.17470548599959 0, 119 0 M0 0 C40.25234882608056 0, 80.50469765216113 0, 119 0 M119 0 C119 20.838864839822058, 119 41.677729679644116, 119 61 M119 0 C119 23.977090548723936, 119 47.95418109744787, 119 61 M119 61 C87.28091360107064 61, 55.561827202141274 61, 0 61 M119 61 C82.72847159132361 61, 46.45694318264722 61, 0 61 M0 61 C0 43.65960827991366, 0 26.319216559827325, 0 0 M0 61 C0 39.959752035886055, 0 18.919504071772103, 0 0" stroke="#000000" stroke-width="1" fill="none"></path></g><g transform="translate(136 103.5) rotate(0 31.5 12.5)"><text x="0" y="19" font-family="Yasuragi, YXCZ, Segoe UI Emoji" font-size="20px" fill="#000000" text-anchor="start" style="white-space: pre;" direction="ltr">远程库1</text></g><g transform="translate(484.5 85.5) rotate(0 59.5 30.5)"><path d="M0 0 C31.327251829952008 0, 62.654503659904016 0, 119 0 M0 0 C39.34197969213128 0, 78.68395938426256 0, 119 0 M119 0 C119 15.470496190339329, 119 30.940992380678658, 119 61 M119 0 C119 22.64726622030139, 119 45.29453244060278, 119 61 M119 61 C77.81446879878641 61, 36.6289375975728 61, 0 61 M119 61 C78.40408272966742 61, 37.808165459334845 61, 0 61 M0 61 C0 45.88685296699404, 0 30.77370593398809, 0 0 M0 61 C0 43.27354700639844, 0 25.547094012796876, 0 0" stroke="#000000" stroke-width="1" fill="none"></path></g><g transform="translate(503.5 101) rotate(0 32.5 12.5)"><text x="0" y="19" font-family="Yasuragi, YXCZ, Segoe UI Emoji" font-size="20px" fill="#000000" text-anchor="start" style="white-space: pre;" direction="ltr">远程库2</text></g><g><g transform="translate(239 114) rotate(0 121 0)"><path d="M0 0 C40.333333333333336 0, 201.66666666666666 0, 242 0 M0 0 C40.333333333333336 0, 201.66666666666666 0, 242 0" stroke="#000000" stroke-width="1" fill="none"></path></g><g transform="translate(239 114) rotate(0 121 0)"><path d="M213.80922137642276 10.260604299770062 C224.90282044915548 6.222864446412203, 235.9964195218882 2.1851245930543435, 242 0 M213.80922137642276 10.260604299770062 C220.42418678751096 7.852953789433466, 227.03915219859914 5.445303279096868, 242 0" stroke="#000000" stroke-width="1" fill="none"></path></g><g transform="translate(239 114) rotate(0 121 0)"><path d="M213.80922137642276 -10.260604299770062 C224.90282044915548 -6.222864446412203, 235.9964195218882 -2.1851245930543435, 242 0 M213.80922137642276 -10.260604299770062 C220.42418678751096 -7.852953789433466, 227.03915219859914 -5.445303279096868, 242 0" stroke="#000000" stroke-width="1" fill="none"></path></g></g><g transform="translate(341 85.5) rotate(0 16.5 11.5)"><text x="0" y="18" font-family="Helvetica, Segoe UI Emoji" font-size="20px" fill="#000000" text-anchor="start" style="white-space: pre;" direction="ltr">fork</text></g><g><g transform="translate(543 81) rotate(0 -24.552250000000015 -28.09375)"><path d="M0 0 C0 -8.5, 8.833333333333334 -41.833333333333336, 0 -51 C-8.833333333333334 -60.166666666666664, -44.166666666666664 -54.333333333333336, -53 -55 M0 0 C0 -8.5, 8.833333333333334 -41.833333333333336, 0 -51 C-8.833333333333334 -60.166666666666664, -44.166666666666664 -54.333333333333336, -53 -55" stroke="#000000" stroke-width="1" fill="none"></path></g><g transform="translate(543 81) rotate(0 -24.552250000000015 -28.09375)"><path d="M-25.264778859963183 -66.43492493693137 C-32.70102829011769 -63.369041538462, -40.1372777202722 -60.30315813999263, -53 -55 M-25.264778859963183 -66.43492493693137 C-33.58465957950399 -63.004730130413755, -41.904540299044804 -59.57453532389615, -53 -55" stroke="#000000" stroke-width="1" fill="none"></path></g><g transform="translate(543 81) rotate(0 -24.552250000000015 -28.09375)"><path d="M-24.403359899843675 -45.93180420468707 C-32.07056931473997 -48.36313026028079, -39.73777872963627 -50.79445631587451, -53 -55 M-24.403359899843675 -45.93180420468707 C-32.981645012901275 -48.65203877492944, -41.55993012595887 -51.372273345171806, -53 -55" stroke="#000000" stroke-width="1" fill="none"></path></g></g><g transform="translate(380 13) rotate(0 51.5 11.5)"><text x="0" y="18" font-family="Helvetica, Segoe UI Emoji" font-size="20px" fill="#000000" text-anchor="start" style="white-space: pre;" direction="ltr">pull request</text></g><g><g transform="translate(375 25) rotate(0 -20 0)"><path d="M0 0 C-6.666666666666667 0, -33.333333333333336 0, -40 0 M0 0 C-6.666666666666667 0, -33.333333333333336 0, -40 0" stroke="#000000" stroke-width="1" fill="none"></path></g><g transform="translate(375 25) rotate(0 -20 0)"><path d="M-21.20614758428183 -6.840402866513374 C-26.451001740163637 -4.931432070705009, -31.695855896045444 -3.022461274896643, -40 0 M-21.20614758428183 -6.840402866513374 C-26.68548362022168 -4.846087645889101, -32.164819656161534 -2.851772425264829, -40 0" stroke="#000000" stroke-width="1" fill="none"></path></g><g transform="translate(375 25) rotate(0 -20 0)"><path d="M-21.20614758428183 6.840402866513374 C-26.451001740163637 4.931432070705009, -31.695855896045444 3.022461274896643, -40 0 M-21.20614758428183 6.840402866513374 C-26.68548362022168 4.846087645889101, -32.164819656161534 2.851772425264829, -40 0" stroke="#000000" stroke-width="1" fill="none"></path></g></g><g transform="translate(288 10) rotate(0 20 13)"><text x="0" y="21" font-family="Helvetica, Segoe UI Emoji" font-size="20px" fill="#000000" text-anchor="start" style="white-space: pre;" direction="ltr">审核</text></g><g><g transform="translate(285 23) rotate(0 -21.5 0)"><path d="M0 0 C-7.166666666666667 0, -35.833333333333336 0, -43 0 M0 0 C-7.166666666666667 0, -35.833333333333336 0, -43 0" stroke="#000000" stroke-width="1" fill="none"></path></g><g transform="translate(285 23) rotate(0 -21.5 0)"><path d="M-22.796608653102968 -7.353433081501877 C-29.623770004931472 -4.868549564903693, -36.45093135675998 -2.3836660483055097, -43 0 M-22.796608653102968 -7.353433081501877 C-30.122510587532776 -4.687022838216235, -37.44841252196259 -2.0206125949305926, -43 0" stroke="#000000" stroke-width="1" fill="none"></path></g><g transform="translate(285 23) rotate(0 -21.5 0)"><path d="M-22.796608653102968 7.353433081501877 C-29.623770004931472 4.868549564903693, -36.45093135675998 2.3836660483055097, -43 0 M-22.796608653102968 7.353433081501877 C-30.122510587532776 4.687022838216235, -37.44841252196259 2.0206125949305926, -43 0" stroke="#000000" stroke-width="1" fill="none"></path></g></g><g transform="translate(178 12) rotate(0 28.5 11.5)"><text x="0" y="18" font-family="Helvetica, Segoe UI Emoji" font-size="20px" fill="#000000" text-anchor="start" style="white-space: pre;" direction="ltr">merge</text></g><g><g transform="translate(173 25) rotate(0 -21.1875 27.491999999999997)"><path d="M0 0 C-6.333333333333333 0.5, -31 -6.5, -38 3 C-45 12.5, -41.333333333333336 48, -42 57 M0 0 C-6.333333333333333 0.5, -31 -6.5, -38 3 C-45 12.5, -41.333333333333336 48, -42 57" stroke="#000000" stroke-width="1" fill="none"></path></g><g transform="translate(173 25) rotate(0 -21.1875 27.491999999999997)"><path d="M-52.59600123815137 28.93356528233244 C-49.840300271470575 36.23280011106049, -47.084599304789776 43.532034939788545, -42 57 M-52.59600123815137 28.93356528233244 C-49.30715864693123 37.64497289814252, -46.018316055711075 46.3563805139526, -42 57" stroke="#000000" stroke-width="1" fill="none"></path></g><g transform="translate(173 25) rotate(0 -21.1875 27.491999999999997)"><path d="M-32.07625138317484 28.68888533826227 C-34.65711967885026 36.051754055213536, -37.23798797452567 43.414622772164805, -42 57 M-32.07625138317484 28.68888533826227 C-35.1564366702493 37.476238001943614, -38.23662195732376 46.263590665624946, -42 57" stroke="#000000" stroke-width="1" fill="none"></path></g></g><g transform="translate(130 238) rotate(0 51.5 52.5)"><path d="M51.5 0 C59.971246550427075 -0.747692063649359, 70.6315950434884 2.916611542049595, 78.2513048960855 7.63847618103847 C85.8710147486826 12.360340820027346, 93.11319712681637 20.261471911193762, 97.21825911558255 28.331187833933253 C101.32332110434874 36.40090375667275, 103.48579292176164 46.987407667693596, 102.88167682868254 56.056771717475414 C102.27756073560344 65.12613576725722, 98.7310652506012 75.31745028994953, 93.59356255710794 82.74737213262415 C88.45605986361468 90.17729397529877, 80.23259026813443 97.00785289118417, 72.05666066772298 100.63630277352311 C63.88073106731153 104.26475265586205, 53.373231232994016 105.74693457133407, 44.53798495463925 104.5180714266578 C35.70273867628448 103.28920828198153, 25.968781449099254 98.99171372057161, 19.045182997594374 93.26312390546548 C12.121584546089494 87.53453409035934, 5.9936499423070675 78.7078891414188, 2.9963942456099772 70.14653253602103 C-0.0008614510871134407 61.58517593062325, -0.739608383468493 50.79784220180795, 1.0616488174118288 41.894984273078805 C2.8629060182921506 32.99212634434966, 7.728314408618875 23.383105425925052, 13.803937450891908 16.729384963646133 C19.87956049316494 10.075664501367214, 31.232709979532014 4.760892326679654, 37.51538707105003 1.972661499405298 C43.79806416256804 -0.8155693278690577, 49.16923117850833 0.15377691656754897, 51.49999999999999 0 C53.83076882149165 -0.15377691656754897, 51.5 0.17500000000000426, 51.5 1.0500000000000043 M51.5 0 C59.971246550427075 -0.747692063649359, 70.6315950434884 2.916611542049595, 78.2513048960855 7.63847618103847 C85.8710147486826 12.360340820027346, 93.11319712681637 20.261471911193762, 97.21825911558255 28.331187833933253 C101.32332110434874 36.40090375667275, 103.48579292176164 46.987407667693596, 102.88167682868254 56.056771717475414 C102.27756073560344 65.12613576725722, 98.7310652506012 75.31745028994953, 93.59356255710794 82.74737213262415 C88.45605986361468 90.17729397529877, 80.23259026813443 97.00785289118417, 72.05666066772298 100.63630277352311 C63.88073106731153 104.26475265586205, 53.373231232994016 105.74693457133407, 44.53798495463925 104.5180714266578 C35.70273867628448 103.28920828198153, 25.968781449099254 98.99171372057161, 19.045182997594374 93.26312390546548 C12.121584546089494 87.53453409035934, 5.9936499423070675 78.7078891414188, 2.9963942456099772 70.14653253602103 C-0.0008614510871134407 61.58517593062325, -0.739608383468493 50.79784220180795, 1.0616488174118288 41.894984273078805 C2.8629060182921506 32.99212634434966, 7.728314408618875 23.383105425925052, 13.803937450891908 16.729384963646133 C19.87956049316494 10.075664501367214, 31.232709979532014 4.760892326679654, 37.51538707105003 1.972661499405298 C43.79806416256804 -0.8155693278690577, 49.16923117850833 0.15377691656754897, 51.49999999999999 0 C53.83076882149165 -0.15377691656754897, 51.5 0.17500000000000426, 51.5 1.0500000000000043" stroke="#000000" stroke-width="1" fill="none"></path></g><g transform="translate(151 281) rotate(0 31.5 12.5)"><text x="0" y="19" font-family="Yasuragi, YXCZ, Segoe UI Emoji" font-size="20px" fill="#000000" text-anchor="start" style="white-space: pre;" direction="ltr">本地库1</text></g><g transform="translate(295.5 238.5) rotate(0 51.5 52.5)"><path d="M51.5 0 C59.971246550427075 -0.747692063649359, 70.6315950434884 2.916611542049595, 78.2513048960855 7.63847618103847 C85.8710147486826 12.360340820027346, 93.11319712681637 20.261471911193762, 97.21825911558255 28.331187833933253 C101.32332110434874 36.40090375667275, 103.48579292176164 46.987407667693596, 102.88167682868254 56.056771717475414 C102.27756073560344 65.12613576725722, 98.7310652506012 75.31745028994953, 93.59356255710794 82.74737213262415 C88.45605986361468 90.17729397529877, 80.23259026813443 97.00785289118417, 72.05666066772298 100.63630277352311 C63.88073106731153 104.26475265586205, 53.373231232994016 105.74693457133407, 44.53798495463925 104.5180714266578 C35.70273867628448 103.28920828198153, 25.968781449099254 98.99171372057161, 19.045182997594374 93.26312390546548 C12.121584546089494 87.53453409035934, 5.9936499423070675 78.7078891414188, 2.9963942456099772 70.14653253602103 C-0.0008614510871134407 61.58517593062325, -0.739608383468493 50.79784220180795, 1.0616488174118288 41.894984273078805 C2.8629060182921506 32.99212634434966, 7.728314408618875 23.383105425925052, 13.803937450891908 16.729384963646133 C19.87956049316494 10.075664501367214, 31.232709979532014 4.760892326679654, 37.51538707105003 1.972661499405298 C43.79806416256804 -0.8155693278690577, 49.16923117850833 0.15377691656754897, 51.49999999999999 0 C53.83076882149165 -0.15377691656754897, 51.5 0.17500000000000426, 51.5 1.0500000000000043 M51.5 0 C59.971246550427075 -0.747692063649359, 70.6315950434884 2.916611542049595, 78.2513048960855 7.63847618103847 C85.8710147486826 12.360340820027346, 93.11319712681637 20.261471911193762, 97.21825911558255 28.331187833933253 C101.32332110434874 36.40090375667275, 103.48579292176164 46.987407667693596, 102.88167682868254 56.056771717475414 C102.27756073560344 65.12613576725722, 98.7310652506012 75.31745028994953, 93.59356255710794 82.74737213262415 C88.45605986361468 90.17729397529877, 80.23259026813443 97.00785289118417, 72.05666066772298 100.63630277352311 C63.88073106731153 104.26475265586205, 53.373231232994016 105.74693457133407, 44.53798495463925 104.5180714266578 C35.70273867628448 103.28920828198153, 25.968781449099254 98.99171372057161, 19.045182997594374 93.26312390546548 C12.121584546089494 87.53453409035934, 5.9936499423070675 78.7078891414188, 2.9963942456099772 70.14653253602103 C-0.0008614510871134407 61.58517593062325, -0.739608383468493 50.79784220180795, 1.0616488174118288 41.894984273078805 C2.8629060182921506 32.99212634434966, 7.728314408618875 23.383105425925052, 13.803937450891908 16.729384963646133 C19.87956049316494 10.075664501367214, 31.232709979532014 4.760892326679654, 37.51538707105003 1.972661499405298 C43.79806416256804 -0.8155693278690577, 49.16923117850833 0.15377691656754897, 51.49999999999999 0 C53.83076882149165 -0.15377691656754897, 51.5 0.17500000000000426, 51.5 1.0500000000000043" stroke="#000000" stroke-width="1" fill="none"></path></g><g transform="translate(316.5 281.5) rotate(0 32.5 12.5)"><text x="0" y="19" font-family="Yasuragi, YXCZ, Segoe UI Emoji" font-size="20px" fill="#000000" text-anchor="start" style="white-space: pre;" direction="ltr">本地库2</text></g><g transform="translate(484.5 241.5) rotate(0 51.5 52.5)"><path d="M51.5 0 C59.971246550427075 -0.747692063649359, 70.6315950434884 2.916611542049595, 78.2513048960855 7.63847618103847 C85.8710147486826 12.360340820027346, 93.11319712681637 20.261471911193762, 97.21825911558255 28.331187833933253 C101.32332110434874 36.40090375667275, 103.48579292176164 46.987407667693596, 102.88167682868254 56.056771717475414 C102.27756073560344 65.12613576725722, 98.7310652506012 75.31745028994953, 93.59356255710794 82.74737213262415 C88.45605986361468 90.17729397529877, 80.23259026813443 97.00785289118417, 72.05666066772298 100.63630277352311 C63.88073106731153 104.26475265586205, 53.373231232994016 105.74693457133407, 44.53798495463925 104.5180714266578 C35.70273867628448 103.28920828198153, 25.968781449099254 98.99171372057161, 19.045182997594374 93.26312390546548 C12.121584546089494 87.53453409035934, 5.9936499423070675 78.7078891414188, 2.9963942456099772 70.14653253602103 C-0.0008614510871134407 61.58517593062325, -0.739608383468493 50.79784220180795, 1.0616488174118288 41.894984273078805 C2.8629060182921506 32.99212634434966, 7.728314408618875 23.383105425925052, 13.803937450891908 16.729384963646133 C19.87956049316494 10.075664501367214, 31.232709979532014 4.760892326679654, 37.51538707105003 1.972661499405298 C43.79806416256804 -0.8155693278690577, 49.16923117850833 0.15377691656754897, 51.49999999999999 0 C53.83076882149165 -0.15377691656754897, 51.5 0.17500000000000426, 51.5 1.0500000000000043 M51.5 0 C59.971246550427075 -0.747692063649359, 70.6315950434884 2.916611542049595, 78.2513048960855 7.63847618103847 C85.8710147486826 12.360340820027346, 93.11319712681637 20.261471911193762, 97.21825911558255 28.331187833933253 C101.32332110434874 36.40090375667275, 103.48579292176164 46.987407667693596, 102.88167682868254 56.056771717475414 C102.27756073560344 65.12613576725722, 98.7310652506012 75.31745028994953, 93.59356255710794 82.74737213262415 C88.45605986361468 90.17729397529877, 80.23259026813443 97.00785289118417, 72.05666066772298 100.63630277352311 C63.88073106731153 104.26475265586205, 53.373231232994016 105.74693457133407, 44.53798495463925 104.5180714266578 C35.70273867628448 103.28920828198153, 25.968781449099254 98.99171372057161, 19.045182997594374 93.26312390546548 C12.121584546089494 87.53453409035934, 5.9936499423070675 78.7078891414188, 2.9963942456099772 70.14653253602103 C-0.0008614510871134407 61.58517593062325, -0.739608383468493 50.79784220180795, 1.0616488174118288 41.894984273078805 C2.8629060182921506 32.99212634434966, 7.728314408618875 23.383105425925052, 13.803937450891908 16.729384963646133 C19.87956049316494 10.075664501367214, 31.232709979532014 4.760892326679654, 37.51538707105003 1.972661499405298 C43.79806416256804 -0.8155693278690577, 49.16923117850833 0.15377691656754897, 51.49999999999999 0 C53.83076882149165 -0.15377691656754897, 51.5 0.17500000000000426, 51.5 1.0500000000000043" stroke="#000000" stroke-width="1" fill="none"></path></g><g transform="translate(505.5 284.5) rotate(0 33 12.5)"><text x="0" y="19" font-family="Yasuragi, YXCZ, Segoe UI Emoji" font-size="20px" fill="#000000" text-anchor="start" style="white-space: pre;" direction="ltr">本地库3</text></g><g><g transform="translate(173 155) rotate(0 0 42.5)"><path d="M0 0 C0 14.166666666666666, 0 70.83333333333333, 0 85 M0 0 C0 14.166666666666666, 0 70.83333333333333, 0 85" stroke="#000000" stroke-width="1" fill="none"></path></g><g transform="translate(173 155) rotate(0 0 42.5)"><path d="M-10.260604299770062 56.80922137642275 C-7.427505208675049 64.59309715628372, -4.594406117580035 72.37697293614468, 0 85 M-10.260604299770062 56.80922137642275 C-6.711367625503946 66.56066899526913, -3.1621309512378293 76.3121166141155, 0 85" stroke="#000000" stroke-width="1" fill="none"></path></g><g transform="translate(173 155) rotate(0 0 42.5)"><path d="M10.260604299770062 56.80922137642275 C7.427505208675049 64.59309715628372, 4.594406117580035 72.37697293614468, 0 85 M10.260604299770062 56.80922137642275 C6.711367625503946 66.56066899526913, 3.1621309512378293 76.3121166141155, 0 85" stroke="#000000" stroke-width="1" fill="none"></path></g></g><g transform="translate(186 179.5) rotate(0 15.5 11.5)"><text x="0" y="18" font-family="Helvetica, Segoe UI Emoji" font-size="20px" fill="#000000" text-anchor="start" style="white-space: pre;" direction="ltr">pull</text></g><g><g transform="translate(220 188) rotate(0 66.21875 23.73675)"><path d="M0 0 C19.833333333333332 -0.3333333333333333, 97.16666666666667 -10.833333333333334, 119 -2 C140.83333333333334 6.833333333333334, 129 43.833333333333336, 131 53 M0 0 C19.833333333333332 -0.3333333333333333, 97.16666666666667 -10.833333333333334, 119 -2 C140.83333333333334 6.833333333333334, 129 43.833333333333336, 131 53" stroke="#000000" stroke-width="1" fill="none"></path></g><g transform="translate(220 188) rotate(0 66.21875 23.73675)"><path d="M122.03934983832016 24.369478721476494 C124.39337047538596 31.890901466872574, 126.74739111245177 39.41232421226866, 131 53 M122.03934983832016 24.369478721476494 C124.25850170184715 31.459977011510567, 126.47765356537413 38.55047530154464, 131 53" stroke="#000000" stroke-width="1" fill="none"></path></g><g transform="translate(220 188) rotate(0 66.21875 23.73675)"><path d="M142.53908807361373 25.307953372323926 C139.50769515367026 32.58283276923559, 136.47630223372678 39.85771216614725, 131 53 M142.53908807361373 25.307953372323926 C139.6813725797682 32.16603350823708, 136.82365708592266 39.02411364415023, 131 53" stroke="#000000" stroke-width="1" fill="none"></path></g></g><g><g transform="translate(518 150) rotate(0 0 48)"><path d="M0 0 C0 16, 0 80, 0 96 M0 0 C0 16, 0 80, 0 96" stroke="#000000" stroke-width="1" fill="none"></path></g><g transform="translate(518 150) rotate(0 0 48)"><path d="M-10.260604299770062 67.80922137642276 C-7.360506854100403 75.77717362261816, -4.460409408430744 83.74512586881359, 0 96 M-10.260604299770062 67.80922137642276 C-8.178303901712251 73.53029470060797, -6.0960035036544395 79.25136802479317, 0 96" stroke="#000000" stroke-width="1" fill="none"></path></g><g transform="translate(518 150) rotate(0 0 48)"><path d="M10.260604299770062 67.80922137642276 C7.360506854100403 75.77717362261816, 4.460409408430744 83.74512586881359, 0 96 M10.260604299770062 67.80922137642276 C8.178303901712251 73.53029470060797, 6.0960035036544395 79.25136802479317, 0 96" stroke="#000000" stroke-width="1" fill="none"></path></g></g><g transform="translate(470 175) rotate(0 24 11.5)"><text x="0" y="18" font-family="Helvetica, Segoe UI Emoji" font-size="20px" fill="#000000" text-anchor="start" style="white-space: pre;" direction="ltr">clone</text></g><g><g transform="translate(561 242) rotate(0 0 -45)"><path d="M0 0 C0 -15, 0 -75, 0 -90 M0 0 C0 -15, 0 -75, 0 -90" stroke="#000000" stroke-width="1" fill="none"></path></g><g transform="translate(561 242) rotate(0 0 -45)"><path d="M10.260604299770062 -61.80922137642275 C6.942503155035228 -70.92562934704824, 3.624402010300394 -80.04203731767373, 0 -90 M10.260604299770062 -61.80922137642275 C6.906840766926088 -71.02361095310192, 3.5530772340821146 -80.2380005297811, 0 -90" stroke="#000000" stroke-width="1" fill="none"></path></g><g transform="translate(561 242) rotate(0 0 -45)"><path d="M-10.260604299770062 -61.80922137642275 C-6.942503155035228 -70.92562934704824, -3.624402010300394 -80.04203731767373, 0 -90 M-10.260604299770062 -61.80922137642275 C-6.906840766926088 -71.02361095310192, -3.5530772340821146 -80.2380005297811, 0 -90" stroke="#000000" stroke-width="1" fill="none"></path></g></g><g transform="translate(565 187) rotate(0 21.5 11.5)"><text x="0" y="18" font-family="Helvetica, Segoe UI Emoji" font-size="20px" fill="#000000" text-anchor="start" style="white-space: pre;" direction="ltr">push</text></g></svg>